<?xml version="1.0" standalone="no"?><!DOCTYPE svg PUBLIC "-//W3C//DTD SVG 1.1//EN" "http://www.w3.org/Graphics/SVG/1.1/DTD/svg11.dtd"><svg t="1564926739503" class="icon" viewBox="0 0 1024 1024" version="1.1" xmlns="http://www.w3.org/2000/svg" p-id="1997" xmlns:xlink="http://www.w3.org/1999/xlink" width="200" height="200"><defs><style type="text/css"></style></defs><path d="M512 992.036571A480.036571 480.036571 0 1 1 512 31.963429a480.036571 480.036571 0 0 1 0 960.073142z m0-64.073142A415.963429 415.963429 0 1 0 512 96.036571a415.963429 415.963429 0 0 0 0 831.926858z m32.036571-447.926858H768a31.963429 31.963429 0 1 1 0 64H543.963429V768a31.963429 31.963429 0 1 1-64 0V543.963429H256a31.963429 31.963429 0 1 1 0-64h224.036571V256a31.963429 31.963429 0 1 1 64 0v224.036571z" p-id="1998" fill="#1296db"></path></svg>