<?xml version="1.0" standalone="no"?><!DOCTYPE svg PUBLIC "-//W3C//DTD SVG 1.1//EN" "http://www.w3.org/Graphics/SVG/1.1/DTD/svg11.dtd"><svg t="1564903355832" class="icon" viewBox="0 0 1024 1024" version="1.1" xmlns="http://www.w3.org/2000/svg" p-id="2441" xmlns:xlink="http://www.w3.org/1999/xlink" width="200" height="200"><defs><style type="text/css"></style></defs><path d="M574.4 657.6L684.8 768l68-68-110.4-111.2c-19.2 25.6-41.6 48.8-68 68.8z" p-id="2442" fill="#eeeeee"></path><path d="M573.6 652.8l101.6 101.6 63.2-62.4-101.6-102.4c-18.4 24-39.2 45.6-63.2 63.2z" p-id="2443" fill="#eeeeee"></path><path d="M749.6 667.2L652.8 764l258.4 258.4 96.8-96.8-258.4-258.4z" p-id="2444" fill="#eeeeee"></path><path d="M749.6 667.2L652.8 764l258.4 258.4s51.2 0 76.8-29.6c25.6-29.6 20-67.2 20-67.2L749.6 667.2zM108.8 124.8C-36 269.6-36 504 108.8 648.8s379.2 144.8 524 0 144.8-379.2 0-524-379.2-144.8-524 0zM592 608.8c-122.4 122.4-320.8 122.4-443.2 0C26.4 486.4 26.4 288 148.8 165.6 271.2 43.2 469.6 43.2 592 165.6 714.4 288 714.4 486.4 592 608.8z" p-id="2445" fill="#eeeeee"></path><path d="M592.8 210.4l-125.6 10.4 30.4 34.4h-0.8l-25.6 21.6c-3.2 2.4-6.4 5.6-12.8-1.6l-48-55.2c-16.8-19.2-61.6-46.4-95.2-18.4-33.6 28.8-13.6 76 3.2 95.2l108 124.8c6.4 7.2 2.4 10.4 0 12.8-3.2 2.4-6.4 5.6-12.8-1.6L304.8 309.6c-16.8-19.2-61.6-46.4-95.2-18.4-33.6 28.8-13.6 76.8 3.2 96L321.6 512c6.4 7.2 2.4 10.4 0 12.8-3.2 2.4-6.4 5.6-12.8-1.6L248 453.6c-31.2-36-74.4-31.2-92.8-15.2l-26.4 22.4c-11.2 8.8-7.2 31.2 3.2 43.2 10.4 11.2 27.2 13.6 37.6 4l25.6-21.6c7.2-5.6 10.4-2.4 12.8 0.8l60 69.6c16.8 19.2 56.8 40.8 90.4 12.8 33.6-28 18.4-70.4 1.6-90.4L252.8 354.4c-6.4-7.2-2.4-10.4 0-12.8 3.2-2.4 6.4-5.6 12.8 1.6l108.8 124.8c16.8 19.2 56.8 40.8 90.4 12.8 33.6-28.8 18.4-70.4 1.6-90.4L358.4 265.6c-6.4-7.2-2.4-10.4 0-12.8 3.2-2.4 6.4-5.6 12.8 1.6l48 55.2c16.8 19.2 54.4 38.4 88 9.6l26.4-22.4 30.4 34.4 30.4-120.8" p-id="2446" fill="#eeeeee"></path></svg>